Grabado de mi propio cd

Exact Audio Copy V1.0 beta 2 from 29. April 2011

Archivo Log de extracciones desde 26. Junio 2011, 18:08

Tesla / Bust A Nut

Usar unidad  : HL-DT-STDVDRAM GP10NB20   Adapter: 2  ID: 0

Modo de Lectura   :        : Seguro
Utilizar corriente precisa : Sí
Caché de audio por defecto : No
Utilizar los punteros C2   : No

Corrección de Desplazamiento de Lectura :     : 6
Sobreleer tanto en Lead-In como en Lead-Out   : No
Rellenar las muestras faltantes con silencios : Sí
Eliminar silencios inicial y final            : No
Muestras nulas usadas en los calculos de CRC  : No
Interfaz usada                                : Interfaz propio de Win32 para Windowns NT y 2000
Manejo de huecos                              : No se detectó, por lo que anexa a la pista anterior

Formato de Salida utilizado :  : Rutinas WAV Internas
Formato de muestra             : 44.100 Hz; 16 Bit; Estéreo


TOC extraídos del CD

     Pista |  Inicio  | Longitud | Inicio del sector | Fin del sector 
    ------------------------------------------------------------------
        1  |  0:00.00 |  5:39.55 |           0       |      25479     
        2  |  5:39.55 |  3:57.38 |       25480       |      43292     
        3  |  9:37.18 |  6:44.32 |       43293       |      73624     
        4  | 16:21.50 |  5:44.65 |       73625       |      99489     
        5  | 22:06.40 |  5:14.15 |       99490       |     123054     
        6  | 27:20.55 |  4:20.05 |      123055       |     142559     
        7  | 31:40.60 |  3:49.20 |      142560       |     159754     
        8  | 35:30.05 |  6:12.13 |      159755       |     187667     
        9  | 41:42.18 |  4:59.00 |      187668       |     210092     
       10  | 46:41.18 |  4:08.72 |      210093       |     228764     
       11  | 50:50.15 |  5:11.65 |      228765       |     252154     
       12  | 56:02.05 |  4:37.00 |      252155       |     272929     
       13  | 60:39.05 |  3:50.30 |      272930       |     290209     
       14  | 64:29.35 |  4:55.18 |      290210       |     312352     


Pista  1

     Nombre de Archivo D:\Documentos\Tesla - Bust A Nut - 01 - The Gate -- Invited.wav

     Nivel Pico 100.0 %
     Velocidad de extracción 2.3 X
     Calidad de Pista 100.0 %
     Copiar CRC BAF62F31
     Extraida con precisión (confidencia 2)  [9EFEBCE0]  (AR v2)
     Copia OK

Pista  2

     Nombre de Archivo D:\Documentos\Tesla - Bust A Nut - 02 - Solution.wav

     Nivel Pico 100.0 %
     Velocidad de extracción 2.6 X
     Calidad de Pista 100.0 %
     Copiar CRC 89ACAF6B
     Extraida con precisión (confidencia 2)  [EC7A6A60]  (AR v2)
     Copia OK

Pista  3

     Nombre de Archivo D:\Documentos\Tesla - Bust A Nut - 03 - Shine Away.wav

     Nivel Pico 100.0 %
     Velocidad de extracción 2.9 X
     Calidad de Pista 100.0 %
     Copiar CRC 4D1ABF2C
     Extraida con precisión (confidencia 2)  [77E44D51]  (AR v2)
     Copia OK

Pista  4

     Nombre de Archivo D:\Documentos\Tesla - Bust A Nut - 04 - Try So Hard.wav

     Nivel Pico 100.0 %
     Velocidad de extracción 3.1 X
     Calidad de Pista 100.0 %
     Copiar CRC 14522AF2
     Extraida con precisión (confidencia 2)  [EB3FF2AA]  (AR v2)
     Copia OK

Pista  5

     Nombre de Archivo D:\Documentos\Tesla - Bust A Nut - 05 - She Want She Want.wav

     Nivel Pico 100.0 %
     Velocidad de extracción 3.4 X
     Calidad de Pista 100.0 %
     Copiar CRC C2474B8A
     Extraida con precisión (confidencia 2)  [D3BF533F]  (AR v2)
     Copia OK

Pista  6

     Nombre de Archivo D:\Documentos\Tesla - Bust A Nut - 06 - Need Your Lovin'.wav

     Nivel Pico 100.0 %
     Velocidad de extracción 3.6 X
     Calidad de Pista 100.0 %
     Copiar CRC 369A283D
     Extraida con precisión (confidencia 2)  [496ABC80]  (AR v2)
     Copia OK

Pista  7

     Nombre de Archivo D:\Documentos\Tesla - Bust A Nut - 07 - Action Talks.wav

     Nivel Pico 100.0 %
     Velocidad de extracción 3.7 X
     Calidad de Pista 100.0 %
     Copiar CRC 8114E672
     Extraida con precisión (confidencia 2)  [4E3B6C15]  (AR v2)
     Copia OK

Pista  8

     Nombre de Archivo D:\Documentos\Tesla - Bust A Nut - 08 - Mama's Fool.wav

     Nivel Pico 100.0 %
     Velocidad de extracción 3.9 X
     Calidad de Pista 99.9 %
     Copiar CRC 5998ED9F
     Extraida con precisión (confidencia 2)  [1E388EFC]  (AR v2)
     Copia OK

Pista  9

     Nombre de Archivo D:\Documentos\Tesla - Bust A Nut - 09 - Cry.wav

     Nivel Pico 100.0 %
     Velocidad de extracción 4.0 X
     Calidad de Pista 100.0 %
     Copiar CRC 35BA29B1
     Extraida con precisión (confidencia 2)  [BDFD7E07]  (AR v2)
     Copia OK

Pista 10

     Nombre de Archivo D:\Documentos\Tesla - Bust A Nut - 10 - Earthmover.wav

     Nivel Pico 100.0 %
     Velocidad de extracción 4.2 X
     Calidad de Pista 99.9 %
     Copiar CRC 18F87FD6
     Extraida con precisión (confidencia 2)  [8F8D11DB]  (AR v2)
     Copia OK

Pista 11

     Nombre de Archivo D:\Documentos\Tesla - Bust A Nut - 11 - Alot To Lose.wav

     Nivel Pico 100.0 %
     Velocidad de extracción 4.4 X
     Calidad de Pista 100.0 %
     Copiar CRC A3A0EB6B
     Extraida con precisión (confidencia 2)  [37A889A1]  (AR v2)
     Copia OK

Pista 12

     Nombre de Archivo D:\Documentos\Tesla - Bust A Nut - 12 - Rubberband.wav

     Nivel Pico 100.0 %
     Velocidad de extracción 4.6 X
     Calidad de Pista 100.0 %
     Copiar CRC 869E7DD6
     Extraida con precisión (confidencia 2)  [03CD6F6A]  (AR v2)
     Copia OK

Pista 13

     Nombre de Archivo D:\Documentos\Tesla - Bust A Nut - 13 - Wonderful World.wav

     Nivel Pico 100.0 %
     Velocidad de extracción 4.6 X
     Calidad de Pista 99.9 %
     Copiar CRC A076D23E
     Extraida con precisión (confidencia 15)  [8CA178CA]  (AR v1)
     Copia OK

Pista 14

     Nombre de Archivo D:\Documentos\Tesla - Bust A Nut - 14 - Games People Play.wav

     Nivel Pico 100.0 %
     Velocidad de extracción 4.8 X
     Calidad de Pista 100.0 %
     Copiar CRC 9801C879
     Extraida con precisión (confidencia 15)  [2825B8EE]  (AR v1)
     Copia OK


Todas las pistas extraidas con precisión

Sin Errores

Final del Informe

------------------------------------------------------------

Exact Audio Copy V1.0 beta 2 from 29. April 2011

Archivo Log de extracciones desde 26. Junio 2011, 19:55

Tesla / Bust A Nut

Usar unidad  : HL-DT-STDVDRAM GP10NB20   Adapter: 2  ID: 0

Modo de Lectura   :        : Seguro
Utilizar corriente precisa : Sí
Caché de audio por defecto : No
Utilizar los punteros C2   : No

Corrección de Desplazamiento de Lectura :     : 6
Sobreleer tanto en Lead-In como en Lead-Out   : No
Rellenar las muestras faltantes con silencios : Sí
Eliminar silencios inicial y final            : No
Muestras nulas usadas en los calculos de CRC  : No
Interfaz usada                                : Interfaz propio de Win32 para Windowns NT y 2000
Manejo de huecos                              : No se detectó, por lo que anexa a la pista anterior

Formato de Salida utilizado :                : Compresor definido por el Usuario
Velocidad de bits seleccionada               : 896 kBit/s
Calidad                                      : Alta
Añadir ID3 tag                               : No
linea de comandos del compresor              : C:\Program Files (x86)\Exact Audio Copy\FLAC\FLAC.EXE
Opciones adicionales en línea de comandos :  : -6 -V -T "ARTIST=%artist%" -T "TITLE=%title%" -T "ALBUM=%albumtitle%" -T "DATE=%year%" -T "TRACKNUMBER=%tracknr%" -T "GENRE=%genre%" -T "COMMENT=%comment%" -T "BAND=%albuminterpret%" -T "COMPOSER=%composer%" %h


TOC extraídos del CD

     Pista |  Inicio  | Longitud | Inicio del sector | Fin del sector 
    ------------------------------------------------------------------
        1  |  0:00.00 |  5:39.55 |           0       |      25479     
        2  |  5:39.55 |  3:57.38 |       25480       |      43292     
        3  |  9:37.18 |  6:44.32 |       43293       |      73624     
        4  | 16:21.50 |  5:44.65 |       73625       |      99489     
        5  | 22:06.40 |  5:14.15 |       99490       |     123054     
        6  | 27:20.55 |  4:20.05 |      123055       |     142559     
        7  | 31:40.60 |  3:49.20 |      142560       |     159754     
        8  | 35:30.05 |  6:12.13 |      159755       |     187667     
        9  | 41:42.18 |  4:59.00 |      187668       |     210092     
       10  | 46:41.18 |  4:08.72 |      210093       |     228764     
       11  | 50:50.15 |  5:11.65 |      228765       |     252154     
       12  | 56:02.05 |  4:37.00 |      252155       |     272929     
       13  | 60:39.05 |  3:50.30 |      272930       |     290209     
       14  | 64:29.35 |  4:55.18 |      290210       |     312352     


Pista  1

     Nombre de Archivo D:\Documentos\Tesla - Bust A Nut - 01 - The Gate -- Invited.wav

     Nivel Pico 100.0 %
     Velocidad de extracción 2.3 X
     Calidad de Pista 100.0 %
     Copiar CRC BAF62F31
     Extraida con precisión (confidencia 2)  [9EFEBCE0]  (AR v2)
     Copia OK

Pista  2

     Nombre de Archivo D:\Documentos\Tesla - Bust A Nut - 02 - Solution.wav

     Nivel Pico 100.0 %
     Velocidad de extracción 2.6 X
     Calidad de Pista 100.0 %
     Copiar CRC 89ACAF6B
     Extraida con precisión (confidencia 2)  [EC7A6A60]  (AR v2)
     Copia OK

Pista  3

     Nombre de Archivo D:\Documentos\Tesla - Bust A Nut - 03 - Shine Away.wav

     Nivel Pico 100.0 %
     Velocidad de extracción 2.9 X
     Calidad de Pista 100.0 %
     Copiar CRC 4D1ABF2C
     Extraida con precisión (confidencia 2)  [77E44D51]  (AR v2)
     Copia OK

Pista  4

     Nombre de Archivo D:\Documentos\Tesla - Bust A Nut - 04 - Try So Hard.wav

     Nivel Pico 100.0 %
     Velocidad de extracción 3.1 X
     Calidad de Pista 100.0 %
     Copiar CRC 14522AF2
     Extraida con precisión (confidencia 2)  [EB3FF2AA]  (AR v2)
     Copia OK

Pista  5

     Nombre de Archivo D:\Documentos\Tesla - Bust A Nut - 05 - She Want She Want.wav

     Nivel Pico 100.0 %
     Velocidad de extracción 3.4 X
     Calidad de Pista 100.0 %
     Copiar CRC C2474B8A
     Extraida con precisión (confidencia 2)  [D3BF533F]  (AR v2)
     Copia OK

Pista  6

     Nombre de Archivo D:\Documentos\Tesla - Bust A Nut - 06 - Need Your Lovin'.wav

     Nivel Pico 100.0 %
     Velocidad de extracción 3.6 X
     Calidad de Pista 100.0 %
     Copiar CRC 369A283D
     Extraida con precisión (confidencia 2)  [496ABC80]  (AR v2)
     Copia OK

Pista  7

     Nombre de Archivo D:\Documentos\Tesla - Bust A Nut - 07 - Action Talks.wav

     Nivel Pico 100.0 %
     Velocidad de extracción 3.7 X
     Calidad de Pista 100.0 %
     Copiar CRC 8114E672
     Extraida con precisión (confidencia 2)  [4E3B6C15]  (AR v2)
     Copia OK

Pista  8

     Nombre de Archivo D:\Documentos\Tesla - Bust A Nut - 08 - Mama's Fool.wav

     Nivel Pico 100.0 %
     Velocidad de extracción 3.9 X
     Calidad de Pista 99.9 %
     Copiar CRC 5998ED9F
     Extraida con precisión (confidencia 2)  [1E388EFC]  (AR v2)
     Copia OK

Pista  9

     Nombre de Archivo D:\Documentos\Tesla - Bust A Nut - 09 - Cry.wav

     Nivel Pico 100.0 %
     Velocidad de extracción 4.1 X
     Calidad de Pista 100.0 %
     Copiar CRC 35BA29B1
     Extraida con precisión (confidencia 2)  [BDFD7E07]  (AR v2)
     Copia OK

Pista 10

     Nombre de Archivo D:\Documentos\Tesla - Bust A Nut - 10 - Earthmover.wav

     Nivel Pico 100.0 %
     Velocidad de extracción 4.2 X
     Calidad de Pista 99.9 %
     Copiar CRC 18F87FD6
     Extraida con precisión (confidencia 2)  [8F8D11DB]  (AR v2)
     Copia OK

Pista 11

     Nombre de Archivo D:\Documentos\Tesla - Bust A Nut - 11 - Alot To Lose.wav

     Nivel Pico 100.0 %
     Velocidad de extracción 4.4 X
     Calidad de Pista 100.0 %
     Copiar CRC A3A0EB6B
     Extraida con precisión (confidencia 2)  [37A889A1]  (AR v2)
     Copia OK

Pista 12

     Nombre de Archivo D:\Documentos\Tesla - Bust A Nut - 12 - Rubberband.wav

     Nivel Pico 100.0 %
     Velocidad de extracción 4.6 X
     Calidad de Pista 100.0 %
     Copiar CRC 869E7DD6
     Extraida con precisión (confidencia 2)  [03CD6F6A]  (AR v2)
     Copia OK

Pista 13

     Nombre de Archivo D:\Documentos\Tesla - Bust A Nut - 13 - Wonderful World.wav

     Nivel Pico 100.0 %
     Velocidad de extracción 4.6 X
     Calidad de Pista 99.9 %
     Copiar CRC A076D23E
     Extraida con precisión (confidencia 15)  [8CA178CA]  (AR v1)
     Copia OK

Pista 14

     Nombre de Archivo D:\Documentos\Tesla - Bust A Nut - 14 - Games People Play.wav

     Nivel Pico 100.0 %
     Velocidad de extracción 4.8 X
     Calidad de Pista 100.0 %
     Copiar CRC 9801C879
     Extraida con precisión (confidencia 15)  [2825B8EE]  (AR v1)
     Copia OK


Todas las pistas extraidas con precisión

Sin Errores

Final del Informe
